<svg width="1024" height="1024" viewBox="0 0 1024 1024" fill="none" xmlns="http://www.w3.org/2000/svg">
<rect width="1024" height="1024" fill="black"/>
<path d="M597.335 469.333C597.335 480.649 592.839 491.502 584.838 499.503C576.836 507.505 565.984 512 554.668 512H401.665C390.35 512.002 379.5 516.499 371.5 524.501L324.524 571.477C322.406 573.595 319.707 575.037 316.769 575.622C313.831 576.206 310.786 575.906 308.019 574.76C305.251 573.614 302.886 571.672 301.221 569.182C299.557 566.691 298.668 563.763 298.668 560.768V341.333C298.668 330.017 303.163 319.165 311.165 311.163C319.166 303.162 330.019 298.667 341.335 298.667H554.668C565.984 298.667 576.836 303.162 584.838 311.163C592.839 319.165 597.335 330.017 597.335 341.333V469.333Z" stroke="white" stroke-width="42.6667" stroke-linecap="round" stroke-linejoin="round"/>
<path d="M682.668 448C693.984 448 704.836 452.495 712.838 460.497C720.839 468.498 725.335 479.351 725.335 490.667V710.101C725.334 713.097 724.446 716.025 722.781 718.515C721.117 721.006 718.752 722.947 715.984 724.093C713.217 725.239 710.171 725.539 707.234 724.955C704.296 724.371 701.597 722.929 699.479 720.811L652.503 673.835C644.503 665.833 633.652 661.336 622.337 661.333H469.335C458.019 661.333 447.166 656.838 439.165 648.837C431.163 640.835 426.668 629.983 426.668 618.667V597.333" stroke="white" stroke-width="42.6667" stroke-linecap="round" stroke-linejoin="round"/>
</svg>
