<svg xmlns="http://www.w3.org/2000/svg" width="1024" height="1024" fill="none"><path fill="#000" d="M0 0h1024v1024H0z"/><path stroke="#fff" stroke-linecap="round" stroke-linejoin="round" stroke-width="42.667" d="M597.335 469.333A42.668 42.668 0 0 1 554.668 512H401.665a42.665 42.665 0 0 0-30.165 12.501l-46.976 46.976a15.151 15.151 0 0 1-16.505 3.283 15.151 15.151 0 0 1-9.351-13.992V341.333a42.666 42.666 0 0 1 42.667-42.666h213.333a42.67 42.67 0 0 1 42.667 42.666v128ZM682.668 448a42.666 42.666 0 0 1 42.667 42.667v219.434a15.145 15.145 0 0 1-9.351 13.992 15.15 15.15 0 0 1-16.505-3.282l-46.976-46.976a42.672 42.672 0 0 0-30.166-12.502H469.335a42.667 42.667 0 0 1-42.667-42.666v-21.334"/></svg>